# xmcd
#
# Track frame offsets: 
#        150
#        12710
#        27562
#        40970
#        54680
#        70492
#        87552
#        106390
#        122785
#        136059
#
# Disc length: 1994 seconds
#
# Revision: 0
# Processed by: cddbd v1.5.1PL0 Copyright (c) Steve Scherf et al.
# Submitted via: ExactAudioCopy v0.95a4
#
DISCID=9407c80a
DTITLE=Crossroadz - Iron Blues
DYEAR=2004
DGENRE=Blues
TTITLE0=Sweet Home Chicago
TTITLE1=Bright Lights, Big City
TTITLE2=Cross Road Blues
TTITLE3=Foxy Lady
TTITLE4=Nobody's Fault But Mine
TTITLE5=Statesboro Blues
TTITLE6=(I'm Your) Hoochie Coochie Man
TTITLE7=Tumbling Dice
TTITLE8=Walkin' And Cryin'
TTITLE9=Born In Chicago
EXTD=
EXTT0=
EXTT1=
EXTT2=
EXTT3=
EXTT4=
EXTT5=
EXTT6=
EXTT7=
EXTT8=
EXTT9=
PLAYORDER=
